STARTFONT 2.1
FONT -Monotype-Book Antiqua-Regular-I-Normal--25-180-100-100-P-119-iso8859-2
SIZE 18 100 100
FONTBOUNDINGBOX 30 30 -4 -7

STARTPROPERTIES 24
FOUNDRY "Monotype"
FAMILY_NAME "Book Antiqua"
WEIGHT_NAME "Regular"
SLANT "I"
SETWIDTH_NAME "Normal"
ADD_STYLE_NAME ""
PIXEL_SIZE 25
POINT_SIZE 180
RESOLUTION_X 100
RESOLUTION_Y 100
SPACING "P"
AVERAGE_WIDTH 119
CHARSET_REGISTRY "iso8859"
CHARSET_ENCODING "2"
FACE_NAME "Book Antiqua Italic ISO Latin2"
_DEC_DEVICE_FONTNAMES "PS=bookantiqua-it-lat2"
COPYRIGHT "Copyright (c) 1993 Monotype Typography Ltd."
CAP_HEIGHT 20
X_HEIGHT 14
WEIGHT 10
QUAD_WIDTH 15
DEFAULT_CHAR 160
FONT_DESCENT 7
FONT_ASCENT 23
ENDPROPERTIES

CHARS 191

STARTCHAR space
ENCODING 32
SWIDTH 250 0
DWIDTH 6 0
BBX 0 0 0 0
BITMAP
ENDCHAR

STARTCHAR exclam
ENCODING 33
SWIDTH 333 0
DWIDTH 8 0
BBX 6 18 2 0
BITMAP
0C
18
18
18
10
10
30
30
20
20
20
20
20
00
00
60
E0
C0
ENDCHAR

STARTCHAR quotedbl
ENCODING 34
SWIDTH 500 0
DWIDTH 13 0
BBX 6 7 5 10
BITMAP
CC
CC
CC
CC
CC
84
84
ENDCHAR

STARTCHAR numbersign
ENCODING 35
SWIDTH 606 0
DWIDTH 15 0
BBX 13 18 1 0
BITMAP
0C30
0C20
0C20
0860
0860
FFF8
FFF8
1840
1840
10C0
FFF8
FFF8
30C0
30C0
3080
3080
2180
2180
ENDCHAR

STARTCHAR dollar
ENCODING 36
SWIDTH 500 0
DWIDTH 13 0
BBX 10 22 1 -3
BITMAP
0200
0200
0780
1AC0
3240
2240
6400
6400
6400
3C00
1F80
05C0
04C0
08C0
88C0
8880
8980
CB00
7C00
0800
1000
1000
ENDCHAR

STARTCHAR percent
ENCODING 37
SWIDTH 889 0
DWIDTH 22 0
BBX 16 20 3 -1
BITMAP
0006
180C
6408
4618
C610
C620
C660
C440
4880
3080
0100
031C
0262
0463
0CC3
08C3
10C6
1044
2038
6000
ENDCHAR

STARTCHAR ampersand
ENCODING 38
SWIDTH 778 0
DWIDTH 19 0
BBX 18 18 1 0
BITMAP
01F000
063000
082000
182000
180080
180040
0E0040
0780C0
181F80
607C00
60CC00
C08600
C00600
C00600
E00C00
601800
787000
1F8000
ENDCHAR

STARTCHAR quoteright
ENCODING 39
SWIDTH 278 0
DWIDTH 7 0
BBX 5 6 2 12
BITMAP
38
30
30
20
40
C0
ENDCHAR

STARTCHAR parenleft
ENCODING 40
SWIDTH 333 0
DWIDTH 8 0
BBX 8 23 2 -5
BITMAP
03
06
0C
18
10
30
60
60
60
C0
C0
C0
C0
C0
C0
C0
C0
40
60
20
20
10
10
ENDCHAR

STARTCHAR parenright
ENCODING 41
SWIDTH 333 0
DWIDTH 8 0
BBX 8 23 -1 -5
BITMAP
08
04
04
06
02
02
03
03
03
03
03
03
03
07
06
06
0C
0C
18
10
20
C0
40
ENDCHAR

STARTCHAR asterisk
ENCODING 42
SWIDTH 389 0
DWIDTH 10 0
BBX 8 9 2 9
BITMAP
04
4C
CC
68
0F
38
E8
4C
08
ENDCHAR

STARTCHAR plus
ENCODING 43
SWIDTH 606 0
DWIDTH 15 0
BBX 12 12 2 3
BITMAP
0600
0600
0600
0600
0600
FFF0
FFF0
0600
0600
0600
0600
0600
ENDCHAR

STARTCHAR comma
ENCODING 44
SWIDTH 250 0
DWIDTH 6 0
BBX 5 7 -1 -4
BITMAP
08
18
30
30
20
40
80
ENDCHAR

STARTCHAR minus
ENCODING 45
SWIDTH 606 0
DWIDTH 15 0
BBX 13 2 1 8
BITMAP
FFF8
FFF8
ENDCHAR

STARTCHAR period
ENCODING 46
SWIDTH 250 0
DWIDTH 6 0
BBX 3 3 1 0
BITMAP
60
E0
C0
ENDCHAR

STARTCHAR slash
ENCODING 47
SWIDTH 296 0
DWIDTH 7 0
BBX 14 22 -3 -4
BITMAP
001C
0018
0030
0030
0060
0060
00C0
0080
0180
0100
0300
0200
0600
0400
0C00
1800
1800
3000
3000
6000
4000
C000
ENDCHAR

STARTCHAR zero
ENCODING 48
SWIDTH 500 0
DWIDTH 13 0
BBX 11 18 1 0
BITMAP
0780
18C0
1040
3060
6060
6060
6060
4060
C060
C060
C0E0
C0C0
C0C0
C0C0
C180
4100
6300
1C00
ENDCHAR

STARTCHAR one
ENCODING 49
SWIDTH 500 0
DWIDTH 13 0
BBX 8 18 2 0
BITMAP
03
0E
F6
86
06
06
0C
0C
0C
0C
0C
0C
08
18
18
18
38
FF
ENDCHAR

STARTCHAR two
ENCODING 50
SWIDTH 500 0
DWIDTH 13 0
BBX 10 18 1 0
BITMAP
0F00
3F80
21C0
40C0
40C0
00C0
00C0
0180
0180
0300
0600
0400
0800
1000
2000
4000
FFC0
FFC0
ENDCHAR

STARTCHAR three
ENCODING 51
SWIDTH 500 0
DWIDTH 13 0
BBX 11 18 0 0
BITMAP
0FC0
08E0
1060
0060
0060
00C0
0180
0F80
00C0
00E0
0060
0060
0060
4060
40C0
40C0
E300
3E00
ENDCHAR

STARTCHAR four
ENCODING 52
SWIDTH 500 0
DWIDTH 13 0
BBX 12 18 0 0
BITMAP
0060
00C0
01C0
01C0
02C0
04C0
08C0
0880
1180
2180
2180
4180
FFF0
0100
0300
0300
0300
1FE0
ENDCHAR

STARTCHAR five
ENCODING 53
SWIDTH 500 0
DWIDTH 13 0
BBX 12 18 0 0
BITMAP
0FF0
0FF0
1000
1000
1000
1000
1000
1F80
30C0
1060
0060
0060
0060
4060
40C0
40C0
E300
3E00
ENDCHAR

STARTCHAR six
ENCODING 54
SWIDTH 500 0
DWIDTH 13 0
BBX 10 18 1 0
BITMAP
03C0
0640
0800
1000
3000
2000
6000
6F80
51C0
E0C0
E0C0
C0C0
C0C0
C0C0
C080
6100
6200
3C00
ENDCHAR

STARTCHAR seven
ENCODING 55
SWIDTH 500 0
DWIDTH 13 0
BBX 11 18 2 0
BITMAP
7FE0
7FE0
0040
0040
0080
0180
0100
0200
0200
0400
0C00
0800
1000
1000
2000
6000
4000
8000
ENDCHAR

STARTCHAR eight
ENCODING 56
SWIDTH 500 0
DWIDTH 13 0
BBX 11 18 1 0
BITMAP
07C0
08E0
1060
3060
3060
3040
3880
1D00
0700
1B80
21C0
60C0
C0C0
C0C0
C080
C180
6300
3C00
ENDCHAR

STARTCHAR nine
ENCODING 57
SWIDTH 500 0
DWIDTH 13 0
BBX 11 18 1 0
BITMAP
0780
18C0
30E0
2060
6060
6060
6060
6060
70E0
3160
1E40
00C0
00C0
0080
0180
8300
4600
7800
ENDCHAR

STARTCHAR colon
ENCODING 58
SWIDTH 250 0
DWIDTH 6 0
BBX 5 12 1 0
BITMAP
18
38
30
00
00
00
00
00
00
60
E0
C0
ENDCHAR

STARTCHAR semicolon
ENCODING 59
SWIDTH 250 0
DWIDTH 6 0
BBX 6 16 -1 -4
BITMAP
0C
1C
18
00
00
00
00
00
00
18
30
30
20
40
40
80
ENDCHAR

STARTCHAR less
ENCODING 60
SWIDTH 606 0
DWIDTH 15 0
BBX 13 13 1 2
BITMAP
0008
0078
01E0
0780
1E00
7800
E000
7800
1F00
03C0
00F0
0038
0008
ENDCHAR

STARTCHAR equal
ENCODING 61
SWIDTH 606 0
DWIDTH 15 0
BBX 13 6 1 6
BITMAP
FFF8
FFF8
0000
0000
FFF8
FFF8
ENDCHAR

STARTCHAR greater
ENCODING 62
SWIDTH 606 0
DWIDTH 15 0
BBX 13 13 1 2
BITMAP
8000
F000
3C00
0F00
03C0
00F8
0038
00F0
03C0
1F00
7800
E000
8000
ENDCHAR

STARTCHAR question
ENCODING 63
SWIDTH 500 0
DWIDTH 13 0
BBX 8 18 3 0
BITMAP
7E
47
83
03
03
06
0E
1C
30
20
40
40
20
00
00
60
E0
C0
ENDCHAR

STARTCHAR at
ENCODING 64
SWIDTH 747 0
DWIDTH 19 0
BBX 19 20 1 -2
BITMAP
01FC00
060200
080100
100080
200040
406C40
419C40
C30840
821840
861840
841040
8C3080
8C7100
8CB220
471C40
400040
200080
180300
060C00
01F000
ENDCHAR

STARTCHAR A
ENCODING 65
SWIDTH 722 0
DWIDTH 18 0
BBX 18 18 -1 0
BITMAP
000800
001800
003800
002C00
004C00
004C00
008C00
018C00
010C00
020600
03FE00
040600
0C0600
080600
180300
100300
300300
FC0FC0
ENDCHAR

STARTCHAR B
ENCODING 66
SWIDTH 611 0
DWIDTH 15 0
BBX 13 18 0 0
BITMAP
3FE0
0C38
0C18
0C18
0818
1810
1830
1840
1FC0
1830
1818
3818
3818
3018
3030
3030
3060
FF80
ENDCHAR

STARTCHAR C
ENCODING 67
SWIDTH 667 0
DWIDTH 17 0
BBX 15 18 2 0
BITMAP
03FC
0E0E
1802
3002
2002
6000
6000
C000
C000
C000
C000
C000
C000
E000
6000
7004
3C38
0FE0
ENDCHAR

STARTCHAR D
ENCODING 68
SWIDTH 778 0
DWIDTH 19 0
BBX 17 18 1 0
BITMAP
7FF800
1C0E00
180700
180380
180180
180180
180180
180180
100180
300180
300380
300300
300300
300600
300C00
601800
603000
FFC000
ENDCHAR

STARTCHAR E
ENCODING 69
SWIDTH 611 0
DWIDTH 15 0
BBX 13 18 1 0
BITMAP
3FF8
0C08
0C08
0C08
0C00
1800
1800
1800
1FE0
1800
1000
3000
3000
3000
3008
3010
7010
FFF0
ENDCHAR

STARTCHAR F
ENCODING 70
SWIDTH 556 0
DWIDTH 14 0
BBX 13 18 1 0
BITMAP
3FF8
0C08
0C08
0C08
0C00
1800
1800
1800
1800
1FE0
1800
3000
3000
3000
3000
3000
7000
FC00
ENDCHAR

STARTCHAR G
ENCODING 71
SWIDTH 722 0
DWIDTH 18 0
BBX 16 18 1 0
BITMAP
03FE
0E0F
1802
3002
3002
6000
6000
C000
C000
C000
C000
C03F
C006
E006
6006
7004
3C1C
0FE0
ENDCHAR

STARTCHAR H
ENCODING 72
SWIDTH 778 0
DWIDTH 19 0
BBX 20 18 0 0
BITMAP
1F83F0
0E00C0
0600C0
0C00C0
0C0180
0C0180
0C0180
0C0180
0FFF80
080180
180300
180300
180300
180300
180300
300700
380700
FE1FC0
ENDCHAR

STARTCHAR I
ENCODING 73
SWIDTH 333 0
DWIDTH 8 0
BBX 9 17 0 0
BITMAP
1F80
0600
0E00
0C00
0C00
0C00
0C00
0C00
0C00
1800
1800
1800
1800
1800
3800
3000
FE00
ENDCHAR

STARTCHAR J
ENCODING 74
SWIDTH 333 0
DWIDTH 8 0
BBX 10 23 -1 -5
BITMAP
0FC0
0700
0300
0300
0700
0600
0600
0600
0600
0600
0600
0C00
0C00
0C00
0C00
0C00
0C00
1C00
1800
1800
1800
3000
E000
ENDCHAR

STARTCHAR K
ENCODING 75
SWIDTH 667 0
DWIDTH 17 0
BBX 16 17 1 0
BITMAP
3F87
0C0C
0C18
0C30
0C60
1880
1900
1A00
1F00
1B00
1980
30C0
30E0
3070
3038
3018
FC1E
ENDCHAR

STARTCHAR L
ENCODING 76
SWIDTH 556 0
DWIDTH 14 0
BBX 12 17 1 0
BITMAP
7F00
0C00
1800
1800
1800
1800
1800
1800
1000
3000
3000
3000
3000
3010
7010
6030
FFF0
ENDCHAR

STARTCHAR M
ENCODING 77
SWIDTH 944 0
DWIDTH 24 0
BBX 24 17 0 0
BITMAP
1F001F
07001C
07003C
05002C
058048
058058
098098
09C198
08C118
18C218
10C218
106418
106C18
306818
207018
203018
F820FE
ENDCHAR

STARTCHAR N
ENCODING 78
SWIDTH 778 0
DWIDTH 19 0
BBX 20 17 0 0
BITMAP
3E01F0
060040
070040
050040
0980C0
09C080
08C080
086080
086080
183080
103980
101900
100D00
100D00
100700
300700
FC0300
ENDCHAR

STARTCHAR O
ENCODING 79
SWIDTH 778 0
DWIDTH 19 0
BBX 17 18 2 0
BITMAP
01F800
060E00
180300
300380
300180
600180
600180
E00180
C00180
C00180
C00180
C00300
C00300
C00600
600400
700800
383000
0FC000
ENDCHAR

STARTCHAR P
ENCODING 80
SWIDTH 611 0
DWIDTH 15 0
BBX 14 17 1 1
BITMAP
3FF0
0C18
0C0C
0C0C
0C0C
0C0C
1818
1818
1830
1BC0
1800
3800
3000
3000
3000
3000
FC00
ENDCHAR

STARTCHAR Q
ENCODING 81
SWIDTH 778 0
DWIDTH 19 0
BBX 17 23 2 -5
BITMAP
01F800
060E00
180300
300380
300180
600180
600180
E00180
C00180
C00180
C00180
C00300
C00300
C00600
600400
700800
383000
07C000
1E0000
23C100
20E100
203F00
000E00
ENDCHAR

STARTCHAR R
ENCODING 82
SWIDTH 667 0
DWIDTH 17 0
BBX 16 17 0 1
BITMAP
3FF0
0E18
0C0C
0C0C
0C0C
0C0C
0C18
0870
1B80
19C0
18C0
1860
1870
3830
3018
301C
FC0F
ENDCHAR

STARTCHAR S
ENCODING 83
SWIDTH 556 0
DWIDTH 14 0
BBX 13 18 1 0
BITMAP
03F8
0C30
1810
1010
3000
3000
3800
3C00
1FC0
07E0
0070
0030
0030
4030
4020
4040
E180
7F00
ENDCHAR

STARTCHAR T
ENCODING 84
SWIDTH 611 0
DWIDTH 15 0
BBX 14 18 2 0
BITMAP
FFFC
8304
8304
8304
0300
0300
0600
0600
0600
0600
0600
0600
0C00
0C00
0C00
0C00
1C00
7F00
ENDCHAR

STARTCHAR U
ENCODING 85
SWIDTH 778 0
DWIDTH 19 0
BBX 18 18 3 0
BITMAP
F01FC0
300700
300600
300600
600600
600600
600600
600C00
600C00
600C00
C00C00
C00C00
C00C00
C01800
C03800
E0D800
7F1800
1C1E00
ENDCHAR

STARTCHAR V
ENCODING 86
SWIDTH 722 0
DWIDTH 18 0
BBX 16 18 3 0
BITMAP
FC1F
3006
3004
300C
3008
3010
3010
1820
1820
1840
1880
1880
1900
0900
0E00
0E00
0C00
0800
ENDCHAR

STARTCHAR W
ENCODING 87
SWIDTH 944 0
DWIDTH 24 0
BBX 22 18 3 0
BITMAP
FC107C
301030
303030
303020
307020
305040
309840
3098C0
311880
331880
321900
360900
340F00
380E00
380E00
300C00
300C00
200C00
ENDCHAR

STARTCHAR X
ENCODING 88
SWIDTH 722 0
DWIDTH 18 0
BBX 18 18 1 0
BITMAP
000800
7F03C0
0C0600
060400
060800
031000
033000
01E000
01C000
00C000
016000
026000
063000
0C3000
081800
101800
300C00
FC7F00
ENDCHAR

STARTCHAR Y
ENCODING 89
SWIDTH 667 0
DWIDTH 17 0
BBX 16 18 2 0
BITMAP
6001
F006
380C
1818
0C30
0C20
0640
0640
0680
0280
0300
0300
0300
0200
0600
0600
0600
1F80
ENDCHAR

STARTCHAR Z
ENCODING 90
SWIDTH 667 0
DWIDTH 17 0
BBX 15 18 1 0
BITMAP
3FFE
200C
201C
2038
0030
0060
00C0
01C0
0180
0300
0600
0E00
0C00
1800
3004
7004
E004
FFFC
ENDCHAR

STARTCHAR bracketleft
ENCODING 91
SWIDTH 333 0
DWIDTH 8 0
BBX 9 22 1 -4
BITMAP
0F80
0C00
1800
1800
1800
1800
1800
1800
1000
1000
3000
3000
3000
3000
3000
2000
6000
6000
6000
6000
6000
FC00
ENDCHAR

STARTCHAR backslash
ENCODING 92
SWIDTH 606 0
DWIDTH 15 0
BBX 7 22 4 -4
BITMAP
C0
60
60
60
60
20
20
30
30
30
10
10
18
18
18
08
08
0C
0C
0C
04
06
ENDCHAR

STARTCHAR bracketright
ENCODING 93
SWIDTH 333 0
DWIDTH 8 0
BBX 9 22 -1 -4
BITMAP
1F80
0300
0300
0300
0300
0300
0200
0600
0600
0600
0600
0600
0400
0C00
0C00
0C00
0C00
0C00
0C00
0800
1800
F800
ENDCHAR

STARTCHAR asciicircum
ENCODING 94
SWIDTH 606 0
DWIDTH 15 0
BBX 13 10 1 8
BITMAP
0200
0700
0580
0D80
18C0
1840
3060
2020
6030
C018
ENDCHAR

STARTCHAR underscore
ENCODING 95
SWIDTH 500 0
DWIDTH 13 0
BBX 13 1 0 -3
BITMAP
FFF8
ENDCHAR

STARTCHAR quoteleft
ENCODING 96
SWIDTH 278 0
DWIDTH 7 0
BBX 5 6 2 12
BITMAP
18
10
20
60
60
C0
ENDCHAR

STARTCHAR a
ENCODING 97
SWIDTH 444 0
DWIDTH 11 0
BBX 10 12 0 0
BITMAP
0FC0
10C0
30C0
2080
6180
6180
4380
C500
CF00
DB40
E380
4300
ENDCHAR

STARTCHAR b
ENCODING 98
SWIDTH 463 0
DWIDTH 12 0
BBX 10 19 1 0
BITMAP
0800
F800
3000
3000
3000
3000
3000
23C0
2CC0
68C0
70C0
60C0
6080
4080
C180
C100
C200
E400
7800
ENDCHAR

STARTCHAR c
ENCODING 99
SWIDTH 407 0
DWIDTH 10 0
BBX 9 12 1 0
BITMAP
0F80
1080
2080
6080
4000
C000
C000
C000
C000
C100
6600
7C00
ENDCHAR

STARTCHAR d
ENCODING 100
SWIDTH 500 0
DWIDTH 13 0
BBX 11 19 1 0
BITMAP
0020
01E0
0060
0060
0040
00C0
00C0
0FC0
10C0
2080
2080
6180
4180
C300
C300
C500
CB60
F380
4300
ENDCHAR

STARTCHAR e
ENCODING 101
SWIDTH 389 0
DWIDTH 10 0
BBX 9 12 0 0
BITMAP
0F00
1180
2180
6100
6200
7C00
C000
C000
C000
C100
E600
7800
ENDCHAR

STARTCHAR f
ENCODING 102
SWIDTH 278 0
DWIDTH 7 0
BBX 15 26 -4 -7
BITMAP
000E
001E
0062
0040
00C0
00C0
00C0
0080
07F0
0180
0180
0180
0100
0300
0300
0300
0300
0200
0200
0600
0400
0400
0C00
4800
7000
E000
ENDCHAR

STARTCHAR g
ENCODING 103
SWIDTH 499 0
DWIDTH 12 0
BBX 13 19 -1 -7
BITMAP
0780
08F8
1078
1060
3060
3040
30C0
1980
0E00
0400
0C00
0F00
3380
61C0
4060
C060
C040
6180
3E00
ENDCHAR

STARTCHAR h
ENCODING 104
SWIDTH 500 0
DWIDTH 13 0
BBX 12 18 0 0
BITMAP
0C00
7800
1800
1800
1800
1000
3060
31E0
3260
3460
2840
70C0
60C0
60C0
4180
C1B0
C1C0
8180
ENDCHAR

STARTCHAR i
ENCODING 105
SWIDTH 278 0
DWIDTH 7 0
BBX 6 18 0 0
BITMAP
0C
0C
0C
00
00
00
18
38
D8
18
30
30
30
20
60
6C
70
60
ENDCHAR

STARTCHAR j
ENCODING 106
SWIDTH 278 0
DWIDTH 7 0
BBX 8 25 -2 -7
BITMAP
03
03
03
00
00
00
02
0E
16
06
06
04
04
0C
0C
0C
08
08
18
18
10
10
10
A0
C0
ENDCHAR

STARTCHAR k
ENCODING 107
SWIDTH 444 0
DWIDTH 11 0
BBX 11 19 0 0
BITMAP
0400
7C00
1800
1800
1800
1800
1800
1060
30E0
3300
3200
3400
2C00
7600
6600
6200
6300
43C0
8100
ENDCHAR

STARTCHAR l
ENCODING 108
SWIDTH 278 0
DWIDTH 7 0
BBX 5 19 1 0
BITMAP
08
78
18
18
10
10
30
30
30
20
60
60
60
60
40
C0
D8
E0
C0
ENDCHAR

STARTCHAR m
ENCODING 109
SWIDTH 778 0
DWIDTH 19 0
BBX 18 12 1 0
BITMAP
106180
71C780
B2C980
34D180
38E100
30C300
20C300
608200
618200
6186C0
418700
810600
ENDCHAR

STARTCHAR n
ENCODING 110
SWIDTH 556 0
DWIDTH 14 0
BBX 12 12 1 0
BITMAP
3060
71E0
B260
3460
2840
30C0
60C0
60C0
6180
41B0
C1C0
C180
ENDCHAR

STARTCHAR o
ENCODING 111
SWIDTH 444 0
DWIDTH 11 0
BBX 10 12 0 0
BITMAP
0F80
1180
20C0
60C0
40C0
C0C0
C0C0
C180
C180
C100
6600
3800
ENDCHAR

STARTCHAR p
ENCODING 112
SWIDTH 500 0
DWIDTH 13 0
BBX 12 19 0 -7
BITMAP
38F0
D930
1A30
1430
1830
1820
3060
3060
3040
2080
3100
7E00
6000
6000
6000
4000
C000
C000
8000
ENDCHAR

STARTCHAR q
ENCODING 113
SWIDTH 463 0
DWIDTH 12 0
BBX 10 18 1 -6
BITMAP
0FC0
10C0
30C0
20C0
6080
4180
C180
C380
C580
C900
F300
4300
0300
0300
0200
0600
0600
0600
ENDCHAR

STARTCHAR r
ENCODING 114
SWIDTH 389 0
DWIDTH 10 0
BBX 9 12 1 0
BITMAP
1980
EB80
5A80
1400
1800
3800
3000
3000
3000
2000
6000
4000
ENDCHAR

STARTCHAR s
ENCODING 115
SWIDTH 389 0
DWIDTH 10 0
BBX 9 12 0 0
BITMAP
0F80
1080
2080
6000
7000
3F00
0F80
0180
4180
4100
C600
7800
ENDCHAR

STARTCHAR t
ENCODING 116
SWIDTH 333 0
DWIDTH 8 0
BBX 6 17 2 0
BITMAP
08
18
30
30
30
30
FC
20
60
60
60
60
40
C0
D8
E0
C0
ENDCHAR

STARTCHAR u
ENCODING 117
SWIDTH 556 0
DWIDTH 14 0
BBX 13 12 0 0
BITMAP
1830
7830
9820
1820
3060
3060
30C0
2140
62C0
64D8
78E0
60C0
ENDCHAR

STARTCHAR v
ENCODING 118
SWIDTH 500 0
DWIDTH 13 0
BBX 11 12 1 0
BITMAP
74C0
FDE0
8860
1060
3060
2040
6040
6080
6080
6100
7200
3C00
ENDCHAR

STARTCHAR w
ENCODING 119
SWIDTH 722 0
DWIDTH 18 0
BBX 17 12 0 0
BITMAP
7E2300
FC6780
886180
106180
104180
204100
60C100
60C200
61C200
62C400
74C800
387000
ENDCHAR

STARTCHAR x
ENCODING 120
SWIDTH 500 0
DWIDTH 13 0
BBX 12 12 0 0
BITMAP
1830
3C70
4690
0680
0700
0600
0200
0700
0B00
5320
F3C0
C180
ENDCHAR

STARTCHAR y
ENCODING 121
SWIDTH 500 0
DWIDTH 13 0
BBX 12 19 0 -7
BITMAP
1830
7830
9830
1860
1860
1860
10C0
11C0
31C0
3280
3D80
1980
0100
0100
0200
0200
8400
C800
7000
ENDCHAR

STARTCHAR z
ENCODING 122
SWIDTH 444 0
DWIDTH 11 0
BBX 11 12 0 0
BITMAP
1C20
3FC0
2080
0100
0200
0400
0400
0800
1040
2040
7F80
C780
ENDCHAR

STARTCHAR braceleft
ENCODING 123
SWIDTH 333 0
DWIDTH 8 0
BBX 10 23 1 -5
BITMAP
00C0
0300
0600
0400
0C00
0C00
0C00
0C00
0800
1800
2000
C000
6000
2000
3000
3000
6000
6000
E000
C000
C000
4000
3000
ENDCHAR

STARTCHAR bar
ENCODING 124
SWIDTH 606 0
DWIDTH 15 0
BBX 2 22 7 -4
BITMAP
C0
C0
C0
C0
C0
C0
C0
C0
C0
C0
C0
C0
C0
C0
C0
C0
C0
C0
C0
C0
C0
C0
ENDCHAR

STARTCHAR braceright
ENCODING 125
SWIDTH 333 0
DWIDTH 8 0
BBX 10 23 -2 -5
BITMAP
0300
0080
00C0
00C0
00C0
0180
0180
0300
0300
0100
0100
00C0
0100
0200
0400
0C00
0C00
0C00
0C00
0800
1800
3000
C000
ENDCHAR

STARTCHAR asciitilde
ENCODING 126
SWIDTH 606 0
DWIDTH 15 0
BBX 13 4 1 7
BITMAP
7808
FF08
83F8
80F0
ENDCHAR

STARTCHAR space
ENCODING 160
SWIDTH 250 0
DWIDTH 8 0
BBX 0 0 0 0
BITMAP
ENDCHAR

STARTCHAR Aogonek
ENCODING 161
SWIDTH 722 0
DWIDTH 18 0
BBX 18 23 -1 -5
BITMAP
001800
001800
003800
007800
005800
00CC00
008C00
010C00
030C00
020C00
07FC00
040600
0C0600
180600
100600
300600
300700
FC1FC0
000400
000800
000800
000D00
000E00
ENDCHAR

STARTCHAR breve
ENCODING 162
SWIDTH 333 0
DWIDTH 8 0
BBX 7 4 3 14
BITMAP
82
82
CC
78
ENDCHAR

STARTCHAR Lslash
ENCODING 163
SWIDTH 556 0
DWIDTH 14 0
BBX 13 17 0 0
BITMAP
3F80
0600
0C00
0C00
0C00
0C40
0D80
0E00
3800
F800
1800
1800
1800
1808
3008
3018
7FF8
ENDCHAR

STARTCHAR currency
ENCODING 164
SWIDTH 606 0
DWIDTH 15 0
BBX 13 13 1 2
BITMAP
4F90
EFF8
3060
6030
C018
C018
C018
C018
C018
6030
7070
EFD8
4788
ENDCHAR

STARTCHAR Lcaron
ENCODING 165
SWIDTH 556 0
DWIDTH 14 0
BBX 13 18 1 0
BITMAP
0018
7F30
0C30
1820
1840
18C0
1800
1800
1800
1000
3000
3000
3000
3000
3010
7010
6030
FFF0
ENDCHAR

STARTCHAR Sacute
ENCODING 166
SWIDTH 556 0
DWIDTH 14 0
BBX 13 23 1 0
BITMAP
0030
0070
00C0
0300
0000
03F8
0C30
1810
1010
3000
3000
3800
3C00
1FC0
07E0
0070
0030
0030
4030
4020
4040
E180
7F00
ENDCHAR

STARTCHAR section
ENCODING 167
SWIDTH 500 0
DWIDTH 13 0
BBX 12 23 0 -5
BITMAP
03F0
0C60
0820
1020
1000
1800
0C00
1F00
23C0
20E0
6060
6020
3020
3C40
0F80
0380
01C0
00C0
40C0
4080
4080
E300
7C00
ENDCHAR

STARTCHAR dieresis
ENCODING 168
SWIDTH 333 0
DWIDTH 8 0
BBX 6 3 4 14
BITMAP
CC
CC
88
ENDCHAR

STARTCHAR Scaron
ENCODING 169
SWIDTH 556 0
DWIDTH 14 0
BBX 13 23 1 0
BITMAP
0608
0330
01E0
00C0
0000
03F8
0C30
1810
1010
3000
3000
3800
3C00
1FC0
07E0
0070
0030
0030
4030
4020
4040
E180
7F00
ENDCHAR

STARTCHAR Scommaaccent
ENCODING 170
SWIDTH 556 0
DWIDTH 14 0
BBX 13 24 1 -6
BITMAP
03F8
0C30
1810
1010
3000
3000
3800
3C00
1FC0
07E0
0070
0030
0030
4030
4020
4040
E180
7F00
0000
0600
0C00
0800
1000
1000
ENDCHAR

STARTCHAR Tcaron
ENCODING 171
SWIDTH 611 0
DWIDTH 15 0
BBX 14 23 2 0
BITMAP
0438
0260
03C0
0180
0000
FFFC
8304
8304
8304
0300
0300
0600
0600
0600
0600
0600
0600
0C00
0C00
0C00
0C00
1C00
7F00
ENDCHAR

STARTCHAR Zacute
ENCODING 172
SWIDTH 667 0
DWIDTH 17 0
BBX 15 23 1 0
BITMAP
0018
0030
0040
0180
0000
3FFE
200C
201C
2038
0030
0060
00C0
01C0
0180
0300
0600
0E00
0C00
1800
3004
7004
E004
FFFC
ENDCHAR

STARTCHAR hyphen
ENCODING 173
SWIDTH 333 0
DWIDTH 8 0
BBX 7 2 1 5
BITMAP
FE
FC
ENDCHAR

STARTCHAR Zcaron
ENCODING 174
SWIDTH 667 0
DWIDTH 17 0
BBX 15 23 1 0
BITMAP
020C
0130
00E0
00C0
0000
3FFE
200C
201C
2038
0030
0060
00C0
01C0
0180
0300
0600
0E00
0C00
1800
3004
7004
E004
FFFC
ENDCHAR

STARTCHAR Zdotaccent
ENCODING 175
SWIDTH 667 0
DWIDTH 17 0
BBX 16 22 0 0
BITMAP
0060
0060
0040
0000
1FFF
100E
100C
1018
0038
0070
0060
00C0
01C0
0180
0300
0600
0E00
1C00
1802
3002
7006
FFFE
ENDCHAR

STARTCHAR degree
ENCODING 176
SWIDTH 402 0
DWIDTH 10 0
BBX 8 7 2 11
BITMAP
7E
E7
C1
81
C3
67
3E
ENDCHAR

STARTCHAR aogonek
ENCODING 177
SWIDTH 444 0
DWIDTH 11 0
BBX 10 16 0 -4
BITMAP
0FC0
10C0
2080
2080
6180
4180
4380
C500
CB00
DB40
E380
4300
0400
0800
0C80
0F00
ENDCHAR

STARTCHAR ogonek
ENCODING 178
SWIDTH 333 0
DWIDTH 8 0
BBX 4 5 2 -5
BITMAP
20
40
80
D0
E0
ENDCHAR

STARTCHAR lslash
ENCODING 179
SWIDTH 278 0
DWIDTH 7 0
BBX 6 19 1 0
BITMAP
08
78
18
18
10
30
34
3C
30
E0
E0
60
60
60
40
C0
D8
E0
C0
ENDCHAR

STARTCHAR acute
ENCODING 180
SWIDTH 333 0
DWIDTH 8 0
BBX 6 4 4 14
BITMAP
0C
18
30
C0
ENDCHAR

STARTCHAR lcaron
ENCODING 181
SWIDTH 394 0
DWIDTH 10 0
BBX 10 19 1 0
BITMAP
08C0
7980
1900
1A00
1400
1000
3000
3000
3000
2000
6000
6000
6000
6000
4000
C000
D800
E000
C000
ENDCHAR

STARTCHAR sacute
ENCODING 182
SWIDTH 389 0
DWIDTH 10 0
BBX 10 18 0 0
BITMAP
00C0
0180
0300
0400
0000
0000
0F80
1080
2080
6000
7000
3F00
0F80
0180
4180
4100
C600
7800
ENDCHAR

STARTCHAR caron
ENCODING 183
SWIDTH 333 0
DWIDTH 8 0
BBX 8 4 3 14
BITMAP
83
44
28
30
ENDCHAR

STARTCHAR commaaccent
ENCODING 184
SWIDTH 333 0
DWIDTH 8 0
BBX 4 6 1 -7
BITMAP
10
30
20
60
40
80
ENDCHAR

STARTCHAR scaron
ENCODING 185
SWIDTH 389 0
DWIDTH 10 0
BBX 12 18 0 0
BITMAP
0830
04C0
0780
0300
0000
0000
0F80
1080
2080
6000
7000
3F00
0F80
0180
4180
4100
C600
7800
ENDCHAR

STARTCHAR scommaaccent
ENCODING 186
SWIDTH 389 0
DWIDTH 10 0
BBX 9 18 0 -6
BITMAP
0F80
1080
2080
6000
7000
3F00
0F80
0180
4180
4100
C600
7800
0000
1800
1800
1000
6000
2000
ENDCHAR

STARTCHAR tcaron
ENCODING 187
SWIDTH 431 0
DWIDTH 11 0
BBX 9 19 2 0
BITMAP
0080
0180
0900
1A00
3400
3000
3000
3000
FC00
2000
6000
6000
6000
6000
4000
C000
D800
E000
C000
ENDCHAR

STARTCHAR zacute
ENCODING 188
SWIDTH 444 0
DWIDTH 11 0
BBX 11 18 0 0
BITMAP
0060
00C0
0180
0600
0000
0000
1C20
3FC0
2080
0100
0200
0400
0C00
0800
1040
2040
7F80
8780
ENDCHAR

STARTCHAR hungarumlaut
ENCODING 189
SWIDTH 333 0
DWIDTH 8 0
BBX 8 5 3 13
BITMAP
11
33
26
4C
88
ENDCHAR

STARTCHAR zcaron
ENCODING 190
SWIDTH 444 0
DWIDTH 11 0
BBX 12 18 0 0
BITMAP
0C30
0460
02C0
0380
0000
0000
1C20
3FC0
2080
0100
0200
0400
0C00
0800
1040
2040
7F80
8780
ENDCHAR

STARTCHAR zdotaccent
ENCODING 191
SWIDTH 444 0
DWIDTH 11 0
BBX 10 17 1 0
BITMAP
0300
0300
0200
0000
0000
3C40
3F80
4100
0200
0200
0400
0800
1000
2080
4080
FF80
8700
ENDCHAR

STARTCHAR Racute
ENCODING 192
SWIDTH 667 0
DWIDTH 17 0
BBX 16 22 0 1
BITMAP
0018
0030
0060
0080
0000
3FF0
0E18
0C0C
0C0C
0C0C
0C0C
0C18
0870
1B80
19C0
18C0
1860
1870
3830
3018
301C
FC0F
ENDCHAR

STARTCHAR Aacute
ENCODING 193
SWIDTH 722 0
DWIDTH 18 0
BBX 18 23 -1 0
BITMAP
000300
000600
000C00
003000
000000
000800
001800
003800
002C00
004C00
004C00
008C00
018C00
010C00
020600
03FE00
040600
0C0600
080600
180300
100300
300300
FC0FC0
ENDCHAR

STARTCHAR Acircumflex
ENCODING 194
SWIDTH 722 0
DWIDTH 18 0
BBX 18 23 -1 0
BITMAP
000C00
001C00
003200
00C300
000000
000800
001800
003800
002C00
004C00
004C00
008C00
018C00
010C00
020600
03FE00
040600
0C0600
080600
180300
100300
300300
FC0FC0
ENDCHAR

STARTCHAR Abreve
ENCODING 195
SWIDTH 722 0
DWIDTH 18 0
BBX 18 23 -1 0
BITMAP
004080
004100
006200
003E00
000000
000800
001800
003800
002C00
004C00
004C00
008C00
018C00
010C00
020600
03FE00
040600
0C0600
080600
180300
100300
300300
FC0FC0
ENDCHAR

STARTCHAR Adieresis
ENCODING 196
SWIDTH 722 0
DWIDTH 18 0
BBX 17 22 0 0
BITMAP
006600
006600
006600
000000
001000
003800
003800
007800
005800
009800
018800
010C00
030C00
020C00
07FC00
0C0C00
080400
180600
100600
300600
600600
F81F80
ENDCHAR

STARTCHAR Lacute
ENCODING 197
SWIDTH 556 0
DWIDTH 14 0
BBX 12 23 1 0
BITMAP
0020
0060
00C0
0100
0200
0000
7F00
0C00
1800
1800
1800
1800
1800
1800
1000
3000
3000
3000
3000
3010
7010
6030
FFF0
ENDCHAR

STARTCHAR Cacute
ENCODING 198
SWIDTH 667 0
DWIDTH 17 0
BBX 15 23 2 0
BITMAP
0018
0030
0060
0180
0000
03FC
0E0E
1802
3002
2002
6000
6000
C000
C000
C000
C000
C000
C000
E000
6000
7004
3C38
0FE0
ENDCHAR

STARTCHAR Ccedilla
ENCODING 199
SWIDTH 667 0
DWIDTH 17 0
BBX 15 22 2 -4
BITMAP
03FC
0E0E
1802
3002
6000
6000
6000
C000
C000
C000
C000
C000
E000
6000
7004
3C1C
1FF0
0200
0700
0180
0180
0F00
ENDCHAR

STARTCHAR Ccaron
ENCODING 200
SWIDTH 667 0
DWIDTH 17 0
BBX 15 23 2 0
BITMAP
010C
0198
00F0
0060
0000
03FC
0E0E
1802
3002
2002
6000
6000
C000
C000
C000
C000
C000
C000
E000
6000
7004
3C38
0FE0
ENDCHAR

STARTCHAR Eacute
ENCODING 201
SWIDTH 611 0
DWIDTH 15 0
BBX 13 23 1 0
BITMAP
0030
0060
00C0
0100
0000
3FF8
0C08
0C08
0C08
0C00
1800
1800
1800
1FE0
1800
1000
3000
3000
3000
3008
3010
7010
FFF0
ENDCHAR

STARTCHAR Eogonek
ENCODING 202
SWIDTH 611 0
DWIDTH 15 0
BBX 13 23 1 -5
BITMAP
3FF8
0C08
0C08
0C08
0C00
1800
1800
1800
1FE0
1800
1800
3000
3000
3000
3008
3010
7010
FFF0
0080
0180
0100
01A0
01C0
ENDCHAR

STARTCHAR Edieresis
ENCODING 203
SWIDTH 611 0
DWIDTH 15 0
BBX 13 22 1 0
BITMAP
0330
0330
0220
0000
3FF8
0C08
0C08
0C08
0C00
1800
1800
1800
1FE0
1800
1800
1000
3000
3000
3008
3010
3010
FFF0
ENDCHAR

STARTCHAR Ecaron
ENCODING 204
SWIDTH 611 0
DWIDTH 15 0
BBX 13 23 1 0
BITMAP
0218
0120
01C0
0080
0000
3FF8
0C08
0C08
0C08
0C00
1800
1800
1800
1FE0
1800
1000
3000
3000
3000
3008
3010
7010
FFF0
ENDCHAR

STARTCHAR Iacute
ENCODING 205
SWIDTH 333 0
DWIDTH 8 0
BBX 10 23 0 0
BITMAP
0040
00C0
0180
0200
0C00
0000
1F80
0600
0E00
0C00
0C00
0C00
0C00
0C00
0C00
1800
1800
1800
1800
1800
3800
3000
FE00
ENDCHAR

STARTCHAR Icircumflex
ENCODING 206
SWIDTH 333 0
DWIDTH 8 0
BBX 10 23 0 0
BITMAP
0100
0300
0480
08C0
1040
0000
1F80
0600
0E00
0C00
0C00
0C00
0C00
0C00
0C00
1800
1800
1800
1800
1800
3800
3000
FE00
ENDCHAR

STARTCHAR Dcaron
ENCODING 207
SWIDTH 778 0
DWIDTH 19 0
BBX 17 23 1 0
BITMAP
018600
00C800
007000
002000
000000
7FF800
1C0E00
180700
180380
180180
180180
180180
180180
100180
300180
300380
300300
300300
300600
300C00
601800
603000
FFC000
ENDCHAR

STARTCHAR Dcroat
ENCODING 208
SWIDTH 778 0
DWIDTH 19 0
BBX 17 18 1 0
BITMAP
7FF800
1C0E00
180700
180380
180180
180180
180180
100180
FF8180
300180
300300
300300
300300
300600
300C00
601800
603000
FFC000
ENDCHAR

STARTCHAR Nacute
ENCODING 209
SWIDTH 778 0
DWIDTH 19 0
BBX 20 23 0 0
BITMAP
000100
000700
000C00
001800
002000
000000
3E01F0
060040
070040
050040
0980C0
09C080
08C080
086080
086080
183080
103980
101900
100D00
100D00
100700
300700
FC0300
ENDCHAR

STARTCHAR Ncaron
ENCODING 210
SWIDTH 778 0
DWIDTH 19 0
BBX 20 23 0 0
BITMAP
004080
002100
003600
001C00
000800
000000
3E01F0
060040
070040
050040
0980C0
09C080
08C080
086080
086080
183080
103980
101900
100D00
100D00
100700
300700
FC0300
ENDCHAR

STARTCHAR Oacute
ENCODING 211
SWIDTH 778 0
DWIDTH 19 0
BBX 17 23 2 0
BITMAP
000C00
001800
003000
00C000
000000
01F800
060E00
180300
300380
300180
600180
600180
E00180
C00180
C00180
C00180
C00300
C00300
C00600
600400
700800
383000
0FC000
ENDCHAR

STARTCHAR Ocircumflex
ENCODING 212
SWIDTH 778 0
DWIDTH 19 0
BBX 17 23 2 0
BITMAP
003000
007800
00C800
030400
000000
01F800
060E00
180300
300380
300180
600180
600180
E00180
C00180
C00180
C00180
C00300
C00300
C00600
600400
700800
383000
0FC000
ENDCHAR

STARTCHAR Ohungarumlaut
ENCODING 213
SWIDTH 778 0
DWIDTH 19 0
BBX 17 23 2 0
BITMAP
003200
003600
006C00
019800
000000
01F800
060E00
180300
300380
300180
600180
600180
E00180
C00180
C00180
C00180
C00300
C00300
C00600
600400
700800
383000
0FC000
ENDCHAR

STARTCHAR Odieresis
ENCODING 214
SWIDTH 778 0
DWIDTH 19 0
BBX 17 22 1 0
BITMAP
00CC00
00CC00
00CC00
000000
01F800
060E00
180300
300380
300180
600180
600180
E00180
C00180
C00180
C00180
C00300
C00300
C00600
600400
700800
383000
0FC000
ENDCHAR

STARTCHAR multiply
ENCODING 215
SWIDTH 606 0
DWIDTH 15 0
BBX 11 11 2 3
BITMAP
C040
60E0
31C0
1B80
0F00
0E00
1F00
3B80
71C0
E0E0
4020
ENDCHAR

STARTCHAR Rcaron
ENCODING 216
SWIDTH 667 0
DWIDTH 17 0
BBX 16 22 0 1
BITMAP
010C
0098
00F0
0060
0000
3FF0
0E18
0C0C
0C0C
0C0C
0C0C
0C18
0870
1B80
19C0
18C0
1860
1870
3830
3018
301C
FC0F
ENDCHAR

STARTCHAR Uring
ENCODING 217
SWIDTH 778 0
DWIDTH 19 0
BBX 18 23 3 0
BITMAP
00E000
011000
011000
011000
00E000
F01FC0
300700
300600
300600
600600
600600
600600
600400
600C00
600C00
C00C00
C00C00
C00C00
C01800
C03800
E0D800
7F9800
1C1E00
ENDCHAR

STARTCHAR Uacute
ENCODING 218
SWIDTH 778 0
DWIDTH 19 0
BBX 18 23 3 0
BITMAP
000800
003800
006000
00C000
000000
F01FC0
300700
300600
300600
600600
600600
600600
600C00
600C00
600C00
C00C00
C00C00
C00C00
C01800
C03800
E0D800
7F1800
1C1E00
ENDCHAR

STARTCHAR Uhungarumlaut
ENCODING 219
SWIDTH 778 0
DWIDTH 19 0
BBX 18 23 3 0
BITMAP
006C00
00CC00
009800
033000
000000
F01FC0
300700
300600
300600
600600
600600
600600
600C00
600C00
600C00
C00C00
C00C00
C00C00
C01800
C03800
E0D800
7F1800
1C1E00
ENDCHAR

STARTCHAR Udieresis
ENCODING 220
SWIDTH 778 0
DWIDTH 19 0
BBX 17 22 3 0
BITMAP
033000
033000
033000
000000
F01F80
300600
300600
300600
600600
600400
600C00
600C00
600C00
600C00
C00C00
C00C00
C01800
C01800
C03800
E0D800
7F1800
1C1E00
ENDCHAR

STARTCHAR Yacute
ENCODING 221
SWIDTH 667 0
DWIDTH 17 0
BBX 16 23 2 0
BITMAP
0008
0018
0020
00C0
0000
6001
F006
380C
1818
0C30
0C20
0640
0640
0680
0280
0300
0300
0300
0200
0600
0600
0600
1F80
ENDCHAR

STARTCHAR Tcommaaccent
ENCODING 222
SWIDTH 611 0
DWIDTH 15 0
BBX 14 23 2 -5
BITMAP
FFFC
8304
8304
8304
0300
0300
0600
0600
0600
0600
0600
0600
0C00
0C00
0C00
0C00
7F00
0000
0000
0C00
0800
1000
2000
ENDCHAR

STARTCHAR germandbls
ENCODING 223
SWIDTH 500 0
DWIDTH 13 0
BBX 16 25 -4 -7
BITMAP
001E
0023
0043
0083
0182
0182
0184
0788
0108
0318
0318
030C
030E
0206
0206
0644
064C
0470
0400
0400
0C00
0800
9000
F000
C000
ENDCHAR

STARTCHAR racute
ENCODING 224
SWIDTH 389 0
DWIDTH 10 0
BBX 10 18 1 0
BITMAP
00C0
0180
0300
0400
0000
0000
1980
EB80
5A80
1400
1800
3800
3000
3000
3000
2000
6000
4000
ENDCHAR

STARTCHAR aacute
ENCODING 225
SWIDTH 444 0
DWIDTH 11 0
BBX 11 18 0 0
BITMAP
0060
00C0
0100
0600
0000
0000
0FC0
10C0
3080
2080
6180
6180
4380
C500
CF00
DB40
E380
4300
ENDCHAR

STARTCHAR acircumflex
ENCODING 226
SWIDTH 444 0
DWIDTH 11 0
BBX 11 18 0 0
BITMAP
0180
02C0
0440
1820
0000
0000
0FC0
10C0
3080
2080
6180
6180
4380
C500
CF00
DB40
E380
4300
ENDCHAR

STARTCHAR abreve
ENCODING 227
SWIDTH 444 0
DWIDTH 11 0
BBX 12 18 0 0
BITMAP
0810
0820
0C40
0780
0000
0000
0FC0
10C0
3080
2080
6180
6180
4380
C500
CF00
DB40
E380
4300
ENDCHAR

STARTCHAR adieresis
ENCODING 228
SWIDTH 444 0
DWIDTH 11 0
BBX 11 17 0 0
BITMAP
0660
0660
0440
0000
0000
0FC0
10C0
30C0
2080
6180
6180
4380
C500
CF00
DB60
E380
4300
ENDCHAR

STARTCHAR lacute
ENCODING 229
SWIDTH 278 0
DWIDTH 7 0
BBX 8 23 1 0
BITMAP
03
06
0C
10
08
78
18
18
10
10
30
30
30
20
60
60
60
60
40
C0
D8
E0
C0
ENDCHAR

STARTCHAR cacute
ENCODING 230
SWIDTH 407 0
DWIDTH 10 0
BBX 10 18 1 0
BITMAP
00C0
0180
0300
0C00
0000
0000
0F80
1080
2080
6080
4000
C000
C000
C000
C000
C100
6600
7C00
ENDCHAR

STARTCHAR ccedilla
ENCODING 231
SWIDTH 407 0
DWIDTH 10 0
BBX 9 17 1 -5
BITMAP
0F80
1080
2080
6080
4000
C000
C000
C000
C000
C100
6600
7800
1000
3800
0C00
0C00
7800
ENDCHAR

STARTCHAR ccaron
ENCODING 232
SWIDTH 407 0
DWIDTH 10 0
BBX 11 18 1 0
BITMAP
0860
04C0
0700
0200
0000
0000
0F80
1080
2080
6080
4000
C000
C000
C000
C000
C100
6600
7C00
ENDCHAR

STARTCHAR eacute
ENCODING 233
SWIDTH 389 0
DWIDTH 10 0
BBX 10 18 0 0
BITMAP
00C0
0180
0300
0C00
0000
0000
0F00
1180
2180
6100
6200
7C00
C000
C000
C000
C100
E600
7800
ENDCHAR

STARTCHAR eogonek
ENCODING 234
SWIDTH 389 0
DWIDTH 10 0
BBX 9 17 0 -5
BITMAP
0F00
1180
2180
6100
6200
7C00
C000
C000
C000
C100
E600
7800
1000
2000
2000
3400
3800
ENDCHAR

STARTCHAR edieresis
ENCODING 235
SWIDTH 389 0
DWIDTH 10 0
BBX 10 17 0 0
BITMAP
0CC0
0CC0
0880
0000
0000
0700
1980
3180
6100
6300
5C00
E000
C000
C000
C100
E600
7C00
ENDCHAR

STARTCHAR ecaron
ENCODING 236
SWIDTH 389 0
DWIDTH 10 0
BBX 11 18 0 0
BITMAP
0860
0C80
0700
0200
0000
0000
0F00
1180
2180
6100
6200
7C00
C000
C000
C000
C100
E600
7800
ENDCHAR

STARTCHAR iacute
ENCODING 237
SWIDTH 278 0
DWIDTH 7 0
BBX 8 18 0 0
BITMAP
01
03
04
18
00
00
18
38
D8
18
30
30
30
20
60
6C
70
60
ENDCHAR

STARTCHAR icircumflex
ENCODING 238
SWIDTH 278 0
DWIDTH 7 0
BBX 9 18 0 0
BITMAP
0600
0E00
1300
6180
0000
0000
1800
3800
D800
1800
3000
3000
3000
2000
6000
6C00
7000
6000
ENDCHAR

STARTCHAR dcaron
ENCODING 239
SWIDTH 642 0
DWIDTH 16 0
BBX 16 18 1 0
BITMAP
01E7
0064
006C
0058
00C0
00C0
0FC0
11C0
2080
6080
6180
4180
4380
C300
C500
CB20
F3C0
6300
ENDCHAR

STARTCHAR dcroat
ENCODING 240
SWIDTH 500 0
DWIDTH 13 0
BBX 13 18 1 0
BITMAP
01E0
0060
0060
07F8
00C0
00C0
0FC0
11C0
2080
6080
6180
4180
4380
C300
C500
CB20
F3C0
E300
ENDCHAR

STARTCHAR nacute
ENCODING 241
SWIDTH 556 0
DWIDTH 14 0
BBX 12 18 1 0
BITMAP
0060
00E0
0180
0300
0000
0000
3060
71E0
B260
3460
2840
30C0
60C0
60C0
6180
41B0
C1C0
C180
ENDCHAR

STARTCHAR ncaron
ENCODING 242
SWIDTH 556 0
DWIDTH 14 0
BBX 12 18 1 0
BITMAP
0410
0660
03C0
0180
0000
0000
3060
71E0
B260
3460
2840
30C0
60C0
60C0
6180
41B0
C1C0
C180
ENDCHAR

STARTCHAR oacute
ENCODING 243
SWIDTH 444 0
DWIDTH 11 0
BBX 10 18 0 0
BITMAP
0040
00C0
0300
0600
0000
0000
0F80
1180
20C0
60C0
40C0
C0C0
C0C0
C080
C180
C100
6600
3800
ENDCHAR

STARTCHAR ocircumflex
ENCODING 244
SWIDTH 444 0
DWIDTH 11 0
BBX 11 18 0 0
BITMAP
0180
0280
0440
1860
0000
0000
0F80
1180
20C0
60C0
40C0
C0C0
C0C0
C080
C180
C100
6600
3800
ENDCHAR

STARTCHAR ohungarumlaut
ENCODING 245
SWIDTH 444 0
DWIDTH 11 0
BBX 12 19 0 0
BITMAP
0120
0330
0660
04C0
0980
0000
0000
0F80
1180
20C0
60C0
40C0
C0C0
C0C0
C080
C180
C100
6600
3800
ENDCHAR

STARTCHAR odieresis
ENCODING 246
SWIDTH 444 0
DWIDTH 11 0
BBX 10 17 1 0
BITMAP
0CC0
0CC0
0CC0
0000
0000
0F00
1180
20C0
60C0
40C0
C0C0
C0C0
C080
C180
C100
6600
3800
ENDCHAR

STARTCHAR divide
ENCODING 247
SWIDTH 606 0
DWIDTH 15 0
BBX 13 11 1 3
BITMAP
0700
0700
0700
0000
0000
FFF8
FFF8
0000
0200
0700
0300
ENDCHAR

STARTCHAR rcaron
ENCODING 248
SWIDTH 389 0
DWIDTH 10 0
BBX 12 18 1 0
BITMAP
0870
04C0
0380
0300
0000
0000
1980
EB80
5A80
1400
1800
3800
3000
3000
3000
2000
6000
4000
ENDCHAR

STARTCHAR uring
ENCODING 249
SWIDTH 556 0
DWIDTH 14 0
BBX 12 18 1 0
BITMAP
01C0
0220
0220
0260
01C0
0000
1830
7860
9860
1060
30C0
30C0
31C0
21C0
6280
6590
79E0
6180
ENDCHAR

STARTCHAR uacute
ENCODING 250
SWIDTH 556 0
DWIDTH 14 0
BBX 13 18 0 0
BITMAP
0030
0070
00C0
0100
0000
0000
1830
7830
9820
1820
3060
3060
30C0
2140
62C0
64D8
78E0
60C0
ENDCHAR

STARTCHAR uhungarumlaut
ENCODING 251
SWIDTH 556 0
DWIDTH 14 0
BBX 13 19 0 0
BITMAP
00C8
00D8
0190
0120
0240
0000
0000
1830
7830
9820
1820
3060
3060
30C0
2140
62C0
64D8
78E0
60C0
ENDCHAR

STARTCHAR udieresis
ENCODING 252
SWIDTH 556 0
DWIDTH 14 0
BBX 13 17 0 0
BITMAP
0330
0330
0330
0000
0000
1830
7830
9820
1020
3060
3060
30C0
2140
62C0
64D8
78E0
60C0
ENDCHAR

STARTCHAR yacute
ENCODING 253
SWIDTH 500 0
DWIDTH 13 0
BBX 12 25 0 -7
BITMAP
0020
0060
0080
0300
0000
0000
1830
3830
5830
1860
1860
1060
10C0
11C0
11C0
1280
1D80
1980
0100
0100
0200
0200
C400
C800
7000
ENDCHAR

STARTCHAR tcommaaccent
ENCODING 254
SWIDTH 333 0
DWIDTH 8 0
BBX 7 22 1 -6
BITMAP
0C
18
18
18
18
7E
10
30
30
30
30
20
60
64
68
70
00
20
60
40
80
80
ENDCHAR

STARTCHAR dotaccent
ENCODING 255
SWIDTH 333 0
DWIDTH 8 0
BBX 2 3 6 14
BITMAP
C0
C0
80
ENDCHAR
ENDFONT
